<svg width="238" height="131" viewBox="0 0 238 131" fill="none" xmlns="http://www.w3.org/2000/svg">
<path d="M25.8247 104.968C26.603 102.476 27.475 100.007 28.4837 97.5877C29.4913 95.1631 30.6433 92.8011 31.9337 90.5145C33.3086 88.0793 34.859 85.7475 36.5725 83.5374C38.8558 80.5605 41.5396 77.9134 44.5476 75.6712C46.0671 74.5471 47.683 73.5596 49.3765 72.7202C50.2477 72.2792 51.1549 71.9133 52.0883 71.6264C53.0828 71.3174 54.1215 71.1748 55.1625 71.2045C55.7347 71.224 56.3008 71.3292 56.8418 71.5167C57.4484 71.7242 57.9969 72.0731 58.442 72.5345C58.9 73.0182 59.2197 73.6161 59.3675 74.2657C59.5029 74.8651 59.5158 75.4858 59.4054 76.0903C59.3063 76.6495 59.1285 77.1917 58.8771 77.7009C58.6402 78.1732 58.3597 78.6224 58.0393 79.0426C57.4537 79.826 56.8042 80.5595 56.0975 81.2357C54.7017 82.5734 53.1321 83.7168 51.431 84.6353C49.7235 85.5579 47.8917 86.2293 45.9924 86.6287C43.6288 87.1329 41.1871 87.148 38.8174 86.673C38.4958 86.6033 38.1789 86.5135 37.8685 86.4041C37.5476 86.2913 37.2366 86.152 36.9388 85.9877C36.3257 85.6647 35.7734 85.2375 35.3069 84.7251C34.8355 84.2029 34.467 83.5964 34.2206 82.9375C33.987 82.3088 33.8476 81.6491 33.8068 80.9796C33.745 79.7342 33.891 78.4871 34.2388 77.2895C34.3947 76.7121 34.581 76.1432 34.7967 75.5854C34.9039 75.3084 35.0147 75.0334 35.134 74.7627C35.2517 74.4902 35.3743 74.2391 35.4944 73.9763C36.457 71.8967 37.5551 69.8826 38.7816 67.9468C43.7247 60.2137 50.5201 53.8369 58.5516 49.3949C58.849 49.2228 59.1558 49.0668 59.461 48.9073C59.7674 48.7503 60.0701 48.5859 60.3807 48.4365C61.0026 48.1395 61.6206 47.8346 62.2543 47.5657C63.5099 47.003 64.7937 46.5178 66.0702 46.067C67.09 45.7106 68.1307 45.4175 69.1865 45.1893C69.6154 45.1026 69.9977 45.0318 70.339 44.9814C70.6824 44.9384 70.9833 44.9101 71.2458 44.8946C72.0102 44.8495 72.0395 44.9994 71.4524 45.2898C71.3056 45.3624 71.1202 45.4438 70.8979 45.533C70.6751 45.6199 70.4175 45.7204 70.1249 45.8346C69.8329 45.9476 69.5063 46.0681 69.1451 46.1963C68.7868 46.3316 68.397 46.4808 67.9742 46.6333C65.7515 47.456 63.5756 48.3998 61.4563 49.4606C56.6133 51.8835 52.1816 55.0532 48.3239 58.8536C44.4685 62.6248 41.2483 66.9945 38.7881 71.7937C38.6231 72.1248 38.4573 72.4574 38.2908 72.7914C38.1343 73.1299 37.9774 73.4692 37.8201 73.8096C37.6577 74.1471 37.5204 74.4968 37.3698 74.8401C37.2217 75.1857 37.07 75.5295 36.944 75.8631C36.4241 77.1504 36.0945 78.5066 35.9656 79.8889C35.8877 80.9194 36.0377 81.9155 36.4896 82.6941C36.7208 83.0842 37.0259 83.4253 37.388 83.6982C37.5772 83.8402 37.7782 83.9659 37.9888 84.0739C38.1984 84.188 38.4182 84.2821 38.6455 84.3548C38.8836 84.4325 39.1265 84.4949 39.3726 84.5417L40.1805 84.6721C40.4532 84.7018 40.7258 84.7346 40.9992 84.7603C41.2739 84.7733 41.5479 84.7968 41.8231 84.8022C42.9284 84.8256 44.0332 84.7346 45.1198 84.5305C47.3076 84.1151 49.4 83.2992 51.2916 82.124C52.239 81.5351 53.1363 80.8694 53.9747 80.1336C54.8063 79.4108 55.5633 78.6066 56.2346 77.733L56.4132 77.4894L56.5021 77.3673L56.5783 77.2533C56.6787 77.1036 56.7706 76.9485 56.8537 76.7886C57.0141 76.4823 57.1339 76.1564 57.2099 75.8191C57.2798 75.5153 57.2931 75.2012 57.2491 74.8926C57.2299 74.7558 57.193 74.622 57.1393 74.4947C57.0918 74.3737 57.0268 74.2602 56.9464 74.158C56.868 74.0525 56.7747 73.9589 56.6694 73.8801C56.5573 73.7926 56.4353 73.7185 56.3059 73.6593C56.0062 73.5273 55.6875 73.4433 55.3617 73.4104C54.995 73.3722 54.6254 73.3716 54.2586 73.4085C53.8739 73.4455 53.4924 73.5108 53.1173 73.6039C52.3316 73.8068 51.5662 74.0815 50.8307 74.4244C50.4515 74.596 50.0736 74.7807 49.6951 74.9752C49.3203 75.1692 48.9493 75.3703 48.582 75.5785C47.1119 76.4245 45.7092 77.3826 44.3863 78.4441C42.0143 80.3533 39.8715 82.5309 38.0008 84.9333C36.1189 87.3508 34.4566 89.9315 33.0339 92.6447C32.3167 94.0023 31.6477 95.3856 31.027 96.7947C30.7192 97.4995 30.4177 98.207 30.1392 98.9254L29.7168 100.001L29.3162 101.086C29.0431 101.807 28.8064 102.542 28.5513 103.27C28.3177 104.006 28.0685 104.737 27.8506 105.479C27.3927 106.955 26.9861 108.449 26.5899 109.946C25.3481 114.731 24.274 119.286 22.9857 123.282C22.395 125.119 21.8893 124.894 22.1617 122.679C22.5849 119.551 23.1151 116.278 23.7827 113.035C24.3269 110.369 25.0635 107.662 25.854 105.003C25.8438 104.992 25.8346 104.981 25.8247 104.968Z" fill="#5A5A5A"/>
<path d="M33.041 110.331C31.883 111.47 30.8149 112.698 29.8465 114.003C29.5987 114.356 29.3463 114.709 29.1026 115.068C28.8708 115.436 28.6435 115.807 28.4276 116.183C27.5219 117.828 26.7365 119.557 25.9735 121.311L24.8409 123.958C24.4636 124.843 24.0932 125.736 23.6923 126.614L23.6864 126.627C23.5485 126.929 23.2962 127.164 22.9851 127.28C22.6741 127.396 22.3296 127.383 22.0276 127.245C21.8375 127.157 21.6723 127.023 21.5468 126.856C21.4213 126.688 21.3394 126.492 21.3085 126.284L20.9225 123.594C20.4901 120.697 20.0589 117.796 19.6459 114.887C19.234 111.978 18.8394 109.061 18.5205 106.121C18.4359 105.23 18.3999 104.335 18.4127 103.44C18.411 102.591 18.6321 102.022 18.9336 101.663C19.3759 101.141 19.9195 101.601 20.1502 102.756C20.2964 103.519 20.3972 104.29 20.452 105.065C20.7665 108.613 21.309 112.138 22.0761 115.616C22.2843 116.58 22.5373 117.577 22.615 118.535C22.817 121.016 23.2688 123.475 23.6562 125.939L21.5261 125.645C21.7566 125.115 21.995 124.588 22.2504 124.07C23.2498 122.022 24.1458 119.903 25.2101 117.844C26.1531 115.986 27.2385 114.204 28.4566 112.514C29.6922 110.835 31.0719 109.268 32.5801 107.829C32.8801 107.546 33.1827 107.273 33.4881 107.015C33.8016 106.767 34.1187 106.535 34.4392 106.319C35.057 105.897 35.7243 105.553 36.426 105.294C36.7396 105.18 36.965 105.223 37.0618 105.374C37.1555 105.522 37.1328 105.791 36.9171 106.089C36.5934 106.491 36.2414 106.878 35.8953 107.272C35.5517 107.67 35.1949 108.058 34.8344 108.438C34.5494 108.76 34.2427 109.066 33.9293 109.369L33.6938 109.595L33.4675 109.829C33.3176 109.986 33.1679 110.143 33.0184 110.299L33.041 110.331Z" fill="#5A5A5A"/>
<path d="M93.8074 43.6219C93.3259 43.7163 92.8907 43.7418 92.5017 43.6985C92.1108 43.6447 91.7347 43.5281 91.3734 43.3489C91.0227 43.1677 90.6387 42.9277 90.2215 42.629C90.0091 42.3772 89.8395 42.1496 89.7127 41.9462C89.5942 41.7302 89.5043 41.4653 89.4427 41.1512C89.3935 40.9 89.408 40.6689 89.4862 40.4579C89.5644 40.2469 89.7553 40.1117 90.0589 40.0522C90.2787 40.0091 90.5084 40.1 90.7481 40.3247C90.8374 40.5029 90.9747 40.7042 91.16 40.9288C91.3453 41.1534 91.5966 41.3541 91.9139 41.531C92.2417 41.7059 92.6492 41.8163 93.1364 41.8621C93.2682 41.8689 93.4126 41.8569 93.5696 41.8261C93.8417 41.7728 94.1089 41.6661 94.371 41.506C94.6435 41.3439 94.8598 41.1439 95.0197 40.9061C95.1796 40.6682 95.2308 40.4027 95.1734 40.1096C95.1242 39.8584 94.9984 39.6602 94.796 39.5151C94.6041 39.3679 94.3807 39.2541 94.1258 39.1736C93.8793 39.0806 93.6527 39.0055 93.4458 38.9482C93.0445 38.8421 92.637 38.7317 92.2233 38.6172C91.8095 38.5026 91.421 38.3505 91.0577 38.1608C90.6924 37.9606 90.3755 37.7021 90.1068 37.3852C89.8487 37.0662 89.6703 36.6555 89.5719 36.1531C89.459 35.5774 89.5112 35.0671 89.7284 34.6224C89.9436 34.1672 90.2619 33.795 90.6835 33.5059C91.1135 33.2042 91.585 33.0031 92.0979 32.9026C92.2758 32.8677 92.504 32.8393 92.7823 32.8174C93.0711 32.7934 93.3796 32.7873 93.708 32.799C94.0364 32.8107 94.3552 32.8569 94.6645 32.9376C94.9718 33.0078 95.2339 33.1249 95.4508 33.289C95.6677 33.453 95.8039 33.6763 95.8593 33.9589C95.9044 34.1892 95.8554 34.4107 95.7124 34.6236C95.5777 34.8239 95.3952 34.9466 95.1649 34.9917C94.9137 35.041 94.6899 35.0359 94.4935 34.9766C94.2971 34.9172 94.1038 34.8464 93.9138 34.7641C93.7342 34.6797 93.5305 34.6109 93.3027 34.5578C93.0749 34.5046 92.8092 34.5077 92.5057 34.5672L92.0503 34.6565C91.8091 34.8124 91.616 34.9916 91.4709 35.194C91.3237 35.3858 91.2665 35.5655 91.2993 35.733C91.3609 36.047 91.5231 36.2924 91.786 36.4692C92.0594 36.6438 92.3925 36.7905 92.7853 36.9092C93.1865 37.0153 93.6045 37.1236 94.0392 37.2341C94.4843 37.3425 94.9105 37.4927 95.3177 37.6846C95.7333 37.864 96.0879 38.1206 96.3816 38.4544C96.6837 38.7756 96.8881 39.2084 96.9947 39.7527C97.0953 40.2656 97.0736 40.7372 96.9297 41.1676C96.7857 41.598 96.5562 41.9799 96.2412 42.3134C95.9261 42.6469 95.5568 42.9258 95.1334 43.1501C94.71 43.3744 94.268 43.5317 93.8074 43.6219ZM103.746 41.6741C102.992 41.8218 102.259 41.797 101.547 41.5997C100.834 41.4024 100.22 41.0444 99.7058 40.5257C99.1911 40.007 98.8558 39.3499 98.6999 38.5544C98.5932 38.0101 98.6046 37.4861 98.7342 36.9824C98.8722 36.4663 99.0738 35.9702 99.3393 35.4943C99.6152 35.0163 99.8962 34.5645 100.182 34.1388C100.334 33.9135 100.532 33.7333 100.777 33.5983C101.021 33.4528 101.278 33.3534 101.551 33.3C102.231 33.1667 102.9 33.1117 103.556 33.1352C104.213 33.1587 104.82 33.2897 105.378 33.5282C105.944 33.7542 106.427 34.1107 106.827 34.5975C107.224 35.074 107.499 35.6995 107.651 36.4741C107.776 37.1126 107.754 37.7202 107.584 38.2969C107.415 38.8736 107.136 39.3955 106.75 39.8626C106.373 40.3277 105.923 40.7202 105.399 41.0404C104.883 41.348 104.332 41.5592 103.746 41.6741ZM103.09 39.9928C103.666 39.88 104.191 39.6739 104.665 39.3745C105.137 39.0646 105.495 38.6737 105.739 38.2019C105.992 37.7176 106.059 37.1718 105.94 36.5647C105.836 36.0309 105.592 35.6168 105.208 35.3224C104.834 35.026 104.396 34.8402 103.892 34.7651C103.386 34.6794 102.887 34.6848 102.395 34.7812C102.144 34.8305 101.947 34.9071 101.804 35.0112C101.662 35.1152 101.54 35.2423 101.439 35.3926C101.338 35.5428 101.22 35.7181 101.085 35.9184C100.852 36.2794 100.656 36.6656 100.497 37.0771C100.337 37.4781 100.302 37.9089 100.392 38.3695C100.535 39.1022 100.859 39.5878 101.362 39.8261C101.865 40.0644 102.441 40.12 103.09 39.9928ZM111.562 39.9793C111.331 40.0245 111.113 39.9912 110.906 39.8795C110.708 39.7553 110.586 39.5781 110.541 39.3478C110.474 39.0024 110.418 38.6654 110.376 38.3368C110.344 38.0061 110.295 37.6733 110.229 37.3384L110.026 36.3021C109.942 35.8729 109.843 35.452 109.73 35.0395C109.624 34.6144 109.473 34.2038 109.276 33.8077C109.21 33.6903 109.147 33.5666 109.089 33.4367C109.04 33.2943 109 33.1498 108.972 33.0032C108.931 32.7939 108.942 32.5743 109.006 32.3444C109.067 32.1041 109.234 31.9572 109.506 31.9039C109.726 31.8608 109.92 31.9097 110.089 32.0505C110.256 32.1808 110.4 32.3592 110.52 32.5856C110.639 32.8015 110.737 33.0268 110.816 33.2614C110.903 33.4835 110.977 33.6699 111.04 33.8208C111.087 33.9528 111.147 34.0932 111.22 34.242C111.293 34.3908 111.343 34.5384 111.372 34.685C111.374 34.6955 111.391 34.7248 111.422 34.773C111.453 34.8213 111.484 34.8695 111.515 34.9177C111.604 34.6503 111.705 34.3589 111.817 34.0434C111.937 33.7155 112.078 33.4054 112.238 33.1131C112.406 32.8083 112.605 32.5466 112.834 32.3278C113.073 32.107 113.355 31.9648 113.68 31.9012C114.015 31.8355 114.282 31.8701 114.483 32.0047C114.691 32.1268 114.872 32.298 115.023 32.5183C115.173 32.728 115.323 32.9378 115.473 33.1476C115.535 33.2441 115.583 33.3488 115.616 33.4619C115.647 33.5646 115.695 33.6693 115.759 33.7763L115.883 33.4912C116.035 33.1571 116.207 32.7917 116.401 32.3949C116.604 31.9857 116.848 31.6227 117.134 31.3058C117.417 30.9785 117.769 30.7738 118.187 30.6917C118.522 30.6261 118.824 30.6701 119.094 30.8239C119.371 30.9651 119.613 31.1731 119.819 31.448C120.036 31.7208 120.212 32.0122 120.349 32.3224C120.486 32.6325 120.581 32.9236 120.635 33.1958L121.287 36.5245C121.318 36.6815 121.325 36.8593 121.31 37.058C121.303 37.2441 121.255 37.4165 121.167 37.5752C121.076 37.7234 120.926 37.818 120.717 37.859C120.476 37.9062 120.266 37.8604 120.087 37.7216C119.907 37.5829 119.799 37.4193 119.762 37.2309L119.202 34.3732C119.196 34.3418 119.178 34.2748 119.147 34.1722C119.116 34.0696 119.078 33.9627 119.035 33.8517C119.002 33.7386 118.98 33.6559 118.97 33.6035C118.953 33.5198 118.917 33.391 118.862 33.2172C118.806 33.0433 118.731 32.8841 118.637 32.7393C118.544 32.5946 118.434 32.5346 118.309 32.5592L118.167 32.5869C117.907 32.9206 117.722 33.2285 117.615 33.5104C117.505 33.782 117.432 34.0463 117.395 34.3035C117.359 34.5606 117.33 34.8325 117.31 35.119C117.288 35.3951 117.24 35.7034 117.166 36.0441C117.146 36.3306 117.076 36.6107 116.955 36.8843C116.843 37.1453 116.646 37.3035 116.363 37.3589C116.091 37.4123 115.868 37.38 115.692 37.2622C115.525 37.1319 115.384 36.964 115.268 36.7585C115.162 36.551 115.068 36.3519 114.987 36.1612C114.948 36.0711 114.881 35.9213 114.785 35.7117C114.69 35.5022 114.585 35.2727 114.471 35.0233C114.367 34.7719 114.267 34.5361 114.169 34.3161C114.07 34.0856 113.998 33.9149 113.955 33.8038C113.873 33.7219 113.801 33.6871 113.739 33.6994C113.644 33.7179 113.558 33.8054 113.48 33.962C113.402 34.1186 113.349 34.2648 113.322 34.4007C113.277 34.5072 113.221 34.6921 113.153 34.9555C113.083 35.2083 113.017 35.4549 112.956 35.6952C112.905 35.9335 112.871 36.0924 112.854 36.1718C112.845 36.2387 112.812 36.4028 112.754 36.6641C112.707 36.9233 112.652 37.2222 112.588 37.5608C112.522 37.889 112.461 38.189 112.405 38.4607C112.35 38.7325 112.315 38.9133 112.3 39.0032C112.234 39.2226 112.16 39.4273 112.078 39.6173C112.006 39.8053 111.834 39.926 111.562 39.9793ZM127.733 37.2177C126.979 37.3654 126.261 37.3866 125.577 37.2815C124.902 37.1638 124.32 36.8865 123.832 36.4495C123.343 36.002 123.017 35.3648 122.855 34.5379C122.731 33.9098 122.711 33.278 122.793 32.6423C122.885 32.0047 123.078 31.4071 123.371 30.8497C123.662 30.2818 124.052 29.8032 124.541 29.4139C125.027 29.0142 125.611 28.7476 126.291 28.6143C126.752 28.524 127.2 28.5341 127.634 28.6446C128.077 28.7425 128.454 28.9458 128.765 29.2546C129.084 29.5508 129.292 29.9501 129.391 30.4525C129.485 30.934 129.476 31.4141 129.363 31.8927C129.251 32.3713 129.055 32.8172 128.778 33.2303C128.5 33.6434 128.161 33.9925 127.76 34.2776C127.368 34.5501 126.936 34.7325 126.465 34.8248C126.392 34.8392 126.227 34.8553 125.969 34.8731C125.71 34.8805 125.503 34.8776 125.348 34.8644C125.239 34.864 125.147 34.8386 125.072 34.7881C125.049 34.7817 125.009 34.7732 124.953 34.7625C124.894 34.7413 124.855 34.7328 124.834 34.7369C124.967 35.0261 125.169 35.2528 125.44 35.4171C125.72 35.5688 126.021 35.662 126.343 35.6967C126.675 35.7293 126.983 35.718 127.265 35.6626C127.464 35.6236 127.661 35.5742 127.856 35.5143C128.059 35.4418 128.276 35.383 128.506 35.3379C128.736 35.2928 128.947 35.3166 129.14 35.4094C129.332 35.5022 129.455 35.6899 129.511 35.9725C129.556 36.2028 129.517 36.3951 129.396 36.5494C129.284 36.7017 129.123 36.8203 128.911 36.9053C128.71 36.9882 128.499 37.0512 128.28 37.0942C128.072 37.1457 127.89 37.1869 127.733 37.2177ZM126.108 33.0035C126.422 32.9419 126.72 32.8238 127.001 32.6492C127.29 32.462 127.511 32.2286 127.662 31.9489C127.825 31.6671 127.871 31.3483 127.801 30.9924C127.742 30.6888 127.6 30.4665 127.377 30.3255C127.164 30.1824 126.906 30.1406 126.602 30.2001C126.33 30.2535 126.057 30.3831 125.782 30.5892C125.507 30.7952 125.256 31.04 125.029 31.3237C124.812 31.6052 124.647 31.8985 124.533 32.2035C124.417 32.498 124.383 32.7709 124.433 33.0221L124.445 33.0849C124.725 33.0734 125.008 33.0724 125.292 33.0819C125.574 33.0809 125.847 33.0548 126.108 33.0035ZM139.515 34.8271C139.326 34.8641 139.173 34.829 139.054 34.7218C138.935 34.6147 138.843 34.4804 138.779 34.3191C138.713 34.1473 138.651 33.9965 138.593 33.8665L138.365 32.7046C138.25 32.1185 138.16 31.5219 138.096 30.915C138.029 30.2976 137.939 29.7011 137.826 29.1254C137.773 28.8532 137.696 28.5967 137.594 28.3557C137.493 28.1147 137.416 27.8634 137.365 27.6017L137.282 27.1778C137.335 27.0043 137.422 26.8677 137.544 26.7677C137.676 26.6657 137.821 26.5993 137.978 26.5686C138.208 26.5234 138.394 26.5576 138.536 26.6711C138.675 26.7742 138.784 26.9106 138.86 27.0803C138.948 27.248 139.027 27.401 139.097 27.5394C139.166 27.6672 139.249 27.7324 139.347 27.7349C139.612 27.4765 139.862 27.2264 140.097 26.9847C140.343 26.7409 140.606 26.5317 140.887 26.357C141.177 26.1699 141.51 26.0394 141.887 25.9655C142.075 25.9286 142.282 25.9315 142.508 25.9742C142.744 26.0149 142.956 26.0983 143.144 26.2246C143.33 26.3403 143.444 26.5081 143.487 26.7279C143.54 27.0001 143.469 27.2205 143.274 27.3892C143.09 27.5559 142.903 27.6576 142.715 27.6946C142.589 27.7192 142.463 27.7166 142.338 27.6868C142.213 27.6571 142.087 27.6545 141.962 27.6791C141.595 27.7509 141.268 27.9128 140.981 28.1648C140.701 28.4043 140.466 28.6733 140.275 28.9717C140.083 29.2701 139.936 29.5435 139.832 29.7921C139.809 29.8945 139.808 30.0577 139.83 30.2816C139.852 30.5055 139.886 30.7598 139.931 31.0445C139.974 31.3187 140.016 31.5877 140.056 31.8514C140.108 32.1131 140.147 32.3392 140.173 32.5296C140.23 32.8771 140.259 33.2192 140.26 33.556C140.269 33.8803 140.221 34.1615 140.116 34.3996C140.008 34.6272 139.808 34.7697 139.515 34.8271ZM149.395 32.9723C148.641 33.12 147.922 33.1413 147.239 33.0362C146.563 32.9185 145.982 32.6412 145.494 32.2042C145.004 31.7567 144.678 31.1195 144.516 30.2926C144.393 29.6645 144.373 29.0327 144.455 28.397C144.547 27.7594 144.74 27.1618 145.033 26.6044C145.323 26.0365 145.713 25.5579 146.202 25.1686C146.689 24.7689 147.273 24.5023 147.953 24.369C148.414 24.2787 148.861 24.2888 149.296 24.3993C149.739 24.4972 150.116 24.7005 150.426 25.0092C150.745 25.3054 150.954 25.7048 151.053 26.2072C151.147 26.6887 151.138 27.1688 151.025 27.6474C150.912 28.126 150.717 28.5719 150.439 28.985C150.162 29.3981 149.822 29.7472 149.422 30.0323C149.03 30.3048 148.598 30.4872 148.127 30.5795C148.054 30.5939 147.888 30.61 147.631 30.6278C147.371 30.6352 147.164 30.6323 147.01 30.6191C146.901 30.6187 146.809 30.5932 146.734 30.5427C146.711 30.5364 146.671 30.5279 146.615 30.5172C146.556 30.496 146.516 30.4875 146.495 30.4916C146.628 30.7808 146.83 31.0075 147.102 31.1717C147.381 31.3234 147.682 31.4167 148.004 31.4514C148.337 31.484 148.644 31.4727 148.927 31.4173C149.126 31.3783 149.323 31.3289 149.517 31.2689C149.721 31.1965 149.937 31.1377 150.168 31.0926C150.398 31.0475 150.609 31.0713 150.801 31.1641C150.993 31.2569 151.117 31.4446 151.172 31.7272C151.218 31.9575 151.179 32.1498 151.057 32.3041C150.946 32.4564 150.784 32.575 150.573 32.66C150.371 32.7429 150.161 32.8059 149.941 32.8489C149.734 32.9004 149.552 32.9416 149.395 32.9723ZM147.77 28.7582C148.084 28.6966 148.381 28.5785 148.662 28.4039C148.952 28.2167 149.172 27.9833 149.324 27.7036C149.486 27.4218 149.532 27.1029 149.463 26.747C149.403 26.4435 149.262 26.2212 149.039 26.0802C148.826 25.9371 148.568 25.8953 148.264 25.9548C147.992 26.0081 147.718 26.1378 147.443 26.3439C147.169 26.5499 146.918 26.7947 146.691 27.0784C146.474 27.3599 146.309 27.6532 146.195 27.9582C146.078 28.2527 146.045 28.5256 146.094 28.7768L146.106 28.8396C146.387 28.8281 146.669 28.8271 146.954 28.8366C147.236 28.8356 147.508 28.8094 147.77 28.7582ZM157.447 30.9051C156.693 31.0528 156.024 30.9938 155.439 30.7279C154.863 30.4496 154.386 30.0377 154.007 29.4923C153.637 28.9345 153.384 28.3101 153.248 27.6192C153.095 26.8342 153.126 26.0781 153.342 25.3509C153.569 24.6217 153.952 23.9977 154.491 23.4789C155.039 22.9476 155.711 22.604 156.507 22.448C156.748 22.4009 157.02 22.3747 157.323 22.3696C157.635 22.352 157.944 22.3783 158.251 22.4485C158.557 22.5083 158.818 22.6201 159.035 22.7842C159.262 22.9461 159.406 23.1841 159.468 23.4981C159.513 23.7284 159.464 23.9228 159.321 24.0812C159.179 24.2396 158.987 24.3425 158.746 24.3896C158.495 24.4389 158.257 24.4202 158.034 24.3335C157.808 24.2364 157.584 24.1446 157.36 24.0579C157.135 23.9608 156.896 23.9369 156.645 23.9861C156.3 24.0538 156.006 24.2201 155.765 24.4848C155.523 24.7495 155.335 25.0636 155.199 25.4271C155.064 25.7906 154.975 26.1668 154.931 26.5557C154.896 26.9321 154.91 27.2773 154.971 27.5914C155.076 28.1252 155.262 28.5182 155.528 28.7702C155.804 29.0098 156.136 29.1512 156.525 29.1946C156.922 29.2254 157.351 29.1957 157.812 29.1054C158.241 29.0213 158.622 28.8596 158.956 28.6203C159.3 28.379 159.643 28.1324 159.985 27.8806L160.299 27.8191C160.77 27.7268 161.051 27.9161 161.144 28.3872C161.199 28.6698 161.136 28.9321 160.955 29.174C160.785 29.4139 160.546 29.6348 160.237 29.8365C159.927 30.0277 159.591 30.1969 159.228 30.3441C158.866 30.4912 158.525 30.6123 158.207 30.7072C157.889 30.8022 157.635 30.8682 157.447 30.9051ZM167.495 29.4249C166.742 29.5726 166.023 29.5939 165.339 29.4888C164.664 29.3711 164.083 29.0938 163.595 28.6568C163.105 28.2093 162.779 27.5721 162.617 26.7451C162.494 26.1171 162.473 25.4853 162.555 24.8496C162.648 24.2119 162.84 23.6144 163.133 23.057C163.424 22.4891 163.814 22.0105 164.303 21.6212C164.79 21.2215 165.373 20.9549 166.054 20.8216C166.514 20.7313 166.962 20.7414 167.397 20.8519C167.84 20.9498 168.217 21.1531 168.527 21.4618C168.846 21.758 169.055 22.1573 169.153 22.6598C169.248 23.1413 169.238 23.6214 169.126 24.1C169.013 24.5786 168.818 25.0245 168.54 25.4376C168.262 25.8507 167.923 26.1998 167.522 26.4848C167.13 26.7574 166.699 26.9398 166.227 27.0321C166.154 27.0465 165.989 27.0626 165.732 27.0804C165.472 27.0878 165.265 27.0849 165.11 27.0717C165.001 27.0713 164.91 27.0458 164.834 26.9953C164.811 26.989 164.772 26.9804 164.715 26.9698C164.657 26.9486 164.617 26.9401 164.596 26.9442C164.729 27.2334 164.931 27.4601 165.202 27.6243C165.482 27.776 165.783 27.8692 166.105 27.904C166.437 27.9366 166.745 27.9253 167.028 27.8699C167.226 27.8309 167.423 27.7814 167.618 27.7215C167.821 27.6491 168.038 27.5903 168.268 27.5452C168.499 27.5001 168.71 27.5239 168.902 27.6167C169.094 27.7095 169.218 27.8972 169.273 28.1798C169.318 28.4101 169.28 28.6024 169.158 28.7567C169.046 28.909 168.885 29.0276 168.673 29.1126C168.472 29.1955 168.262 29.2584 168.042 29.3015C167.835 29.353 167.652 29.3942 167.495 29.4249ZM165.871 25.2107C166.185 25.1492 166.482 25.0311 166.763 24.8565C167.052 24.6693 167.273 24.4359 167.425 24.1562C167.587 23.8744 167.633 23.5555 167.563 23.1996C167.504 22.8961 167.362 22.6738 167.139 22.5328C166.926 22.3897 166.668 22.3479 166.365 22.4074C166.092 22.4607 165.819 22.5904 165.544 22.7965C165.269 23.0025 165.018 23.2473 164.791 23.5309C164.575 23.8125 164.409 24.1058 164.295 24.4108C164.179 24.7053 164.146 24.9782 164.195 25.2294L164.207 25.2922C164.488 25.2807 164.77 25.2797 165.054 25.2892C165.337 25.2882 165.609 25.262 165.871 25.2107ZM173.287 27.7193C173.025 27.7705 172.817 27.7352 172.663 27.6133C172.506 27.4809 172.391 27.3079 172.316 27.0942C172.24 26.8701 172.181 26.6533 172.14 26.444C172.046 25.9625 171.962 25.4789 171.888 24.9933C171.825 24.5056 171.751 24.042 171.665 23.6024C171.572 23.1313 171.432 22.6915 171.243 22.2828C171.054 21.8742 170.918 21.4552 170.834 21.0261L170.714 20.4137C170.765 20.1754 170.836 20.0094 170.926 19.9156C171.014 19.8114 171.147 19.7418 171.325 19.7069C171.65 19.6433 171.906 19.7019 172.093 19.8825C172.279 20.0526 172.42 20.2749 172.518 20.5494C172.623 20.8113 172.709 21.0553 172.775 21.2815C172.808 21.3946 172.873 21.6155 172.97 21.9443C173.078 22.2711 173.165 22.58 173.233 22.871L173.296 22.8587L173.347 22.7836C173.488 22.4515 173.636 22.0965 173.79 21.7184C173.944 21.3404 174.123 20.9792 174.328 20.6348C174.542 20.2884 174.795 19.9944 175.084 19.7528C175.372 19.5008 175.72 19.3348 176.128 19.2548C176.651 19.1522 177.126 19.2168 177.552 19.4486C177.976 19.6699 178.36 19.9967 178.706 20.4289C179.049 20.8507 179.354 21.3236 179.62 21.8477C179.886 22.3717 180.117 22.8861 180.314 23.391C180.51 23.8959 180.682 24.3296 180.829 24.6921L180.906 25.0846C180.951 25.3149 180.934 25.5575 180.853 25.8124C180.771 26.0569 180.593 26.2058 180.321 26.2591C180.039 26.3145 179.815 26.2822 179.65 26.1624C179.496 26.0404 179.375 25.8684 179.288 25.6463C179.249 25.5562 179.193 25.4096 179.12 25.2064C179.046 24.9927 178.963 24.7644 178.872 24.5214C178.779 24.2679 178.695 24.0343 178.621 23.8207C178.544 23.5965 178.485 23.4342 178.444 23.3336C178.371 23.1304 178.25 22.8988 178.079 22.6387C177.917 22.3661 177.768 22.1344 177.633 21.9435C177.496 21.7422 177.33 21.5355 177.137 21.3234C176.943 21.1114 176.705 21.0331 176.422 21.0885C176.171 21.1377 175.958 21.2718 175.784 21.4908C175.62 21.7077 175.483 21.9519 175.373 22.2235C175.273 22.4929 175.185 22.7332 175.106 22.9442C174.927 23.4141 174.773 23.879 174.646 24.3387C174.519 24.7985 174.383 25.2979 174.239 25.8371C174.183 26.0544 174.14 26.3021 174.107 26.5802C174.073 26.8479 174 27.0902 173.891 27.3074C173.781 27.5245 173.58 27.6618 173.287 27.7193ZM185.623 25.9538C185.298 26.0174 185.038 25.9651 184.842 25.797C184.646 25.6289 184.494 25.4087 184.387 25.1363C184.287 24.8514 184.214 24.5886 184.167 24.3478L184.05 23.7512C183.921 23.0917 183.801 22.425 183.69 21.751C183.591 21.0749 183.47 20.3485 183.329 19.5719C183.069 19.6336 182.847 19.6934 182.663 19.7513C182.489 19.8071 182.308 19.8535 182.119 19.8904C181.638 19.9848 181.351 19.7964 181.259 19.3254C181.224 19.1474 181.222 18.9738 181.254 18.8045C181.284 18.6247 181.395 18.4944 181.585 18.4135L182.905 17.8287C183.075 17.752 183.169 17.6195 183.186 17.4313C183.212 17.2306 183.201 17.0098 183.154 16.7691C183.116 16.5158 183.083 16.2667 183.057 16.0219C183.041 15.775 183.081 15.5607 183.175 15.3791C183.281 15.1954 183.49 15.0728 183.804 15.0112C184.024 14.9682 184.199 14.9992 184.328 15.1043C184.466 15.1968 184.572 15.3228 184.647 15.482C184.721 15.6413 184.774 15.7995 184.805 15.9565C184.809 15.9774 184.818 16.0517 184.832 16.1794C184.844 16.2966 184.851 16.4148 184.853 16.534C184.865 16.6512 184.874 16.7255 184.88 16.7569L184.979 17.2594L186.894 16.8839C187.124 16.8388 187.324 16.9138 187.493 17.109C187.659 17.2938 187.764 17.4961 187.807 17.7159C187.815 17.7577 187.815 17.8393 187.806 17.9606C187.797 18.0819 187.761 18.2031 187.698 18.3242C187.633 18.4348 187.527 18.5045 187.38 18.5332L185.371 18.9271C185.36 18.9291 185.341 18.9437 185.314 18.9708C185.285 18.9874 185.254 19.026 185.223 19.0866L185.2 19.1398C185.203 19.4327 185.212 19.6702 185.226 19.8522C185.238 20.0238 185.253 20.1839 185.271 20.3325C185.298 20.4686 185.331 20.636 185.37 20.8349C185.482 21.4106 185.606 21.9843 185.74 22.5559C185.884 23.1255 186.018 23.7295 186.144 24.368C186.185 24.5774 186.211 24.795 186.223 25.021C186.234 25.247 186.197 25.4445 186.111 25.6136C186.026 25.7932 185.864 25.9066 185.623 25.9538ZM199.802 22.9304C199.414 23.0063 199.046 22.9317 198.698 22.7065C198.347 22.4708 198.025 22.1589 197.732 21.7708C197.449 21.3806 197.203 20.9832 196.993 20.5787C196.792 20.1616 196.641 19.8106 196.542 19.5258C196.509 19.4127 196.456 19.2545 196.384 19.0513C196.32 18.8356 196.251 18.6209 196.176 18.4073C196.1 18.1831 196.033 17.9841 195.978 17.8103C195.932 17.6344 195.906 17.5307 195.9 17.4993L195.808 17.0283C195.765 16.8085 195.737 16.5804 195.723 16.3439C195.709 16.1075 195.75 15.8984 195.844 15.7168C195.95 15.5331 196.159 15.4105 196.473 15.349C196.651 15.3141 196.823 15.3294 196.988 15.3949C197.163 15.4583 197.27 15.5843 197.306 15.7727C197.434 16.4217 197.569 17.0309 197.714 17.6005C197.856 18.1596 198.043 18.699 198.275 19.2187C198.508 19.7384 198.83 20.273 199.242 20.8227L199.367 20.7981C199.478 20.2546 199.567 19.71 199.634 19.1643C199.699 18.6081 199.77 18.0561 199.848 17.5083C199.88 17.2846 199.944 17.0548 200.039 16.8187C200.142 16.5702 200.284 16.3521 200.465 16.1646C200.656 15.9749 200.882 15.8545 201.144 15.8032C201.416 15.7499 201.674 15.7916 201.919 15.9286C202.173 16.0634 202.412 16.2558 202.635 16.5056C202.858 16.7554 203.063 17.025 203.25 17.3144C203.437 17.6038 203.604 17.8753 203.752 18.129C203.9 18.3827 204.026 18.5861 204.132 18.7393L204.148 18.7362C204.177 18.7739 204.208 18.8222 204.242 18.8809C204.283 18.9271 204.325 18.9732 204.367 19.0194C204.453 18.4047 204.539 17.79 204.625 17.1754C204.721 16.5586 204.825 15.9513 204.936 15.3534C204.966 15.1737 205.027 14.9553 205.118 14.6983C205.217 14.4289 205.337 14.1825 205.478 13.9592C205.63 13.7338 205.805 13.6017 206.004 13.5627C206.213 13.5217 206.4 13.5611 206.565 13.681C206.728 13.7904 206.829 13.9445 206.868 14.1434C206.886 14.2376 206.898 14.3276 206.904 14.4134C206.921 14.4972 206.917 14.5902 206.894 14.6926C206.859 14.9059 206.821 15.207 206.777 15.5959C206.742 15.9723 206.695 16.3947 206.634 16.8631C206.572 17.3209 206.496 17.7924 206.406 18.2774C206.314 18.7519 206.195 19.1991 206.049 19.619C205.912 20.0264 205.74 20.3698 205.534 20.6494C205.336 20.9164 205.101 21.0765 204.829 21.1299C204.526 21.1894 204.219 21.1244 203.911 20.9349C203.61 20.7329 203.32 20.4745 203.041 20.1596C202.771 19.8322 202.527 19.505 202.311 19.1778C202.092 18.8401 201.915 18.5706 201.777 18.3693C201.763 18.3504 201.748 18.3315 201.734 18.3126C201.717 18.2833 201.695 18.255 201.668 18.2277L201.637 18.2338L201.589 18.3246C201.57 18.5024 201.545 18.7627 201.514 19.1057C201.483 19.4486 201.433 19.8281 201.362 20.2441C201.3 20.6476 201.209 21.0458 201.091 21.4386C200.97 21.821 200.807 22.1519 200.601 22.4314C200.392 22.7005 200.126 22.8668 199.802 22.9304ZM214.251 20.017C213.498 20.1647 212.765 20.1399 212.052 19.9426C211.339 19.7453 210.726 19.3873 210.211 18.8686C209.696 18.3499 209.361 17.6928 209.205 16.8973C209.098 16.353 209.11 15.829 209.239 15.3253C209.377 14.8091 209.579 14.3131 209.845 13.8372C210.12 13.3592 210.401 12.9074 210.688 12.4817C210.839 12.2564 211.037 12.0762 211.283 11.9412C211.526 11.7957 211.784 11.6963 212.056 11.6429C212.736 11.5096 213.405 11.4546 214.062 11.4781C214.718 11.5015 215.326 11.6325 215.883 11.8711C216.449 12.0971 216.932 12.4536 217.332 12.9404C217.73 13.4168 218.004 14.0423 218.156 14.8169C218.281 15.4555 218.259 16.0631 218.089 16.6398C217.92 17.2165 217.642 17.7384 217.255 18.2055C216.879 18.6705 216.429 19.0631 215.904 19.3833C215.389 19.6909 214.838 19.9021 214.251 20.017ZM213.596 18.3357C214.171 18.2229 214.696 18.0168 215.17 17.7173C215.642 17.4075 216 17.0166 216.245 16.5448C216.498 16.0604 216.565 15.5147 216.446 14.9076C216.341 14.3738 216.097 13.9597 215.713 13.6653C215.34 13.3689 214.901 13.1831 214.397 13.1079C213.891 13.0223 213.392 13.0277 212.9 13.1241C212.649 13.1734 212.452 13.25 212.31 13.354C212.167 13.4581 212.045 13.5852 211.944 13.7355C211.843 13.8857 211.725 14.0609 211.591 14.2613C211.357 14.6223 211.161 15.0085 211.003 15.42C210.842 15.821 210.807 16.2518 210.897 16.7124C211.041 17.4451 211.364 17.9307 211.867 18.169C212.371 18.4073 212.947 18.4629 213.596 18.3357ZM221.658 18.7286C221.469 18.7655 221.316 18.7304 221.197 18.6232C221.078 18.5161 220.986 18.3818 220.922 18.2205C220.856 18.0487 220.794 17.8979 220.736 17.7679L220.508 16.606C220.393 16.0199 220.303 15.4233 220.239 14.8164C220.172 14.199 220.082 13.6025 219.969 13.0268C219.916 12.7546 219.839 12.4981 219.737 12.2571C219.636 12.0161 219.559 11.7648 219.508 11.5031L219.425 11.0792C219.478 10.9058 219.565 10.7691 219.687 10.6691C219.819 10.5671 219.964 10.5008 220.121 10.47C220.351 10.4248 220.537 10.459 220.679 10.5726C220.818 10.6756 220.927 10.812 221.003 10.9817C221.091 11.1494 221.17 11.3024 221.24 11.4408C221.309 11.5687 221.392 11.6338 221.49 11.6363C221.755 11.3779 222.005 11.1279 222.24 10.8861C222.486 10.6423 222.749 10.4331 223.03 10.2584C223.32 10.0713 223.653 9.94078 224.03 9.86693C224.218 9.83001 224.425 9.8329 224.651 9.87561C224.887 9.91627 225.099 9.99972 225.287 10.126C225.473 10.2417 225.587 10.4095 225.63 10.6293C225.683 10.9015 225.612 11.1219 225.417 11.2906C225.233 11.4573 225.046 11.559 224.858 11.596C224.732 11.6206 224.606 11.618 224.481 11.5882C224.356 11.5585 224.23 11.5559 224.105 11.5805C223.738 11.6523 223.411 11.8142 223.124 12.0662C222.844 12.3057 222.609 12.5747 222.418 12.8731C222.226 13.1715 222.079 13.4449 221.975 13.6935C221.952 13.7959 221.951 13.9591 221.973 14.183C221.995 14.4069 222.029 14.6612 222.074 14.9459C222.117 15.2201 222.159 15.4891 222.199 15.7528C222.251 16.0145 222.29 16.2406 222.316 16.431C222.373 16.7785 222.402 17.1207 222.403 17.4575C222.412 17.7817 222.364 18.0629 222.259 18.301C222.151 18.5286 221.951 18.6711 221.658 18.7286ZM228.272 17.4322C228.042 17.4774 227.832 17.4316 227.642 17.2949C227.463 17.1561 227.352 16.982 227.311 16.7727L227.253 16.4744L226.679 10.6357L225.984 7.08719C225.941 6.86737 225.902 6.6141 225.867 6.32737C225.833 6.04065 225.858 5.7803 225.943 5.54633C226.038 5.31031 226.248 5.16051 226.572 5.09691C226.865 5.03947 227.089 5.09891 227.243 5.27523C227.407 5.44949 227.527 5.67065 227.601 5.9387C227.686 6.2047 227.749 6.44238 227.79 6.65173C227.909 7.25885 228.005 7.8868 228.077 8.53557C228.159 9.17183 228.267 9.86258 228.402 10.6078L228.59 10.5709C228.611 10.5668 228.7 10.5222 228.858 10.437C229.013 10.3414 229.198 10.2344 229.414 10.116C229.628 9.98709 229.837 9.85924 230.04 9.73242C230.252 9.59308 230.42 9.47867 230.544 9.3892C230.714 9.25806 230.902 9.11236 231.11 8.95208C231.316 8.78134 231.53 8.62527 231.752 8.48388C231.974 8.34249 232.19 8.25128 232.4 8.21025C232.64 8.16307 232.846 8.21512 233.017 8.3664C233.196 8.50516 233.31 8.69491 233.357 8.93567C233.412 9.21829 233.347 9.43769 233.16 9.59386C232.971 9.73956 232.78 9.8748 232.587 9.99957C232.493 10.0724 232.321 10.1931 232.071 10.3616C231.832 10.528 231.558 10.7121 231.25 10.9138C230.94 11.1051 230.64 11.2943 230.35 11.4814C230.059 11.6581 229.812 11.8099 229.608 11.9367L229.617 11.9838L229.711 12.0469C229.799 12.1058 229.884 12.1543 229.968 12.1922C230.062 12.2282 230.153 12.2756 230.24 12.3345C230.416 12.3979 230.681 12.5036 231.036 12.6514C231.391 12.7992 231.77 12.9586 232.173 13.1296C232.587 13.2985 232.966 13.4579 233.311 13.6078C233.664 13.7451 233.916 13.8423 234.069 13.8994C234.225 13.9774 234.394 14.0586 234.573 14.143C234.751 14.2169 234.911 14.3158 235.055 14.4398C235.208 14.5513 235.302 14.7012 235.339 14.8896C235.388 15.1408 235.356 15.3645 235.242 15.5607C235.139 15.7549 234.988 15.8715 234.789 15.9104C234.538 15.9597 234.272 15.9356 233.992 15.8383C233.723 15.739 233.454 15.6124 233.184 15.4587C232.925 15.3029 232.683 15.1764 232.458 15.0793C232.339 15.0265 232.114 14.9347 231.784 14.8037C231.465 14.6707 231.104 14.5239 230.703 14.3634C230.313 14.2008 229.94 14.0456 229.585 13.8978C229.24 13.7479 228.973 13.6318 228.783 13.5495L228.72 13.5618L228.685 13.7154L228.916 16.5561C228.915 16.7737 228.849 16.9659 228.719 17.1327C228.599 17.2975 228.45 17.3973 228.272 17.4322Z" fill="white"/>
</svg>
